<svg width="30" height="22" viewBox="0 0 30 22" fill="none" xmlns="http://www.w3.org/2000/svg">
<path d="M0.626483 8.1913C1.02774 7.79017 1.57189 7.56482 2.13927 7.56482C2.70665 7.56482 3.2508 7.79017 3.65205 8.1913L11.2181 15.7574L26.346 0.627373C26.5446 0.428571 26.7805 0.270845 27.0401 0.1632C27.2998 0.0555549 27.578 9.94839e-05 27.8591 1.33729e-07C28.1401 -9.92164e-05 28.4184 0.0551595 28.6781 0.162621C28.9378 0.270082 29.1738 0.427642 29.3726 0.626304C29.5714 0.824965 29.7292 1.06084 29.8368 1.32046C29.9444 1.58008 29.9999 1.85835 30 2.1394C30.0001 2.42045 29.9448 2.69877 29.8374 2.95846C29.7299 3.21816 29.5724 3.45414 29.3737 3.65295L11.2181 21.8085L0.626483 11.2169C0.225346 10.8156 0 10.2715 0 9.70409C0 9.13671 0.225346 8.59256 0.626483 8.1913Z" fill="white"/>
</svg>
