<svg width="34" height="38" viewBox="0 0 34 38" fill="none" xmlns="http://www.w3.org/2000/svg">
<path d="M22.625 2V8.375C22.625 9.42509 22.625 9.95015 22.8294 10.3512C23.0092 10.704 23.2959 10.9909 23.6487 11.1706C24.0498 11.375 24.5748 11.375 25.625 11.375H32M13.25 11.375H5.75C3.67893 11.375 2 13.0539 2 15.125V32C2 34.0711 3.67893 35.75 5.75 35.75H17C19.0711 35.75 20.75 34.0711 20.75 32V26.375M24.5 2H19.25C17.1498 2 16.0996 2 15.2975 2.40873C14.5919 2.76824 14.0182 3.34192 13.6588 4.04754C13.25 4.8497 13.25 5.89981 13.25 8V20.375C13.25 22.4752 13.25 23.5254 13.6588 24.3275C14.0182 25.0331 14.5919 25.6068 15.2975 25.9662C16.0996 26.375 17.1498 26.375 19.25 26.375H26C28.1002 26.375 29.1504 26.375 29.9525 25.9662C30.6581 25.6068 31.2318 25.0331 31.5912 24.3275C32 23.5254 32 22.4752 32 20.375V9.5L24.5 2Z" stroke="white" stroke-width="3" stroke-linejoin="round"/>
</svg>
