<svg width="22" height="20" viewBox="0 0 22 20" fill="none" xmlns="http://www.w3.org/2000/svg">
<path d="M21 3.33355H18.7778M21 10.0002H15.4444M21 16.6669H15.4444M5.44444 18.8891V11.7349C5.44444 11.5038 5.44444 11.3882 5.42176 11.2777C5.40163 11.1797 5.36834 11.0848 5.3228 10.9955C5.27146 10.8951 5.19927 10.8049 5.05488 10.6243L1.38957 6.04273C1.24518 5.86225 1.17299 5.77201 1.12164 5.67152C1.0761 5.58236 1.04281 5.48746 1.02269 5.38939C1 5.27886 1 5.16329 1 4.93216V2.88911C1 2.26683 1 1.95568 1.1211 1.71801C1.22763 1.50894 1.39761 1.33896 1.60668 1.23243C1.84436 1.11133 2.1555 1.11133 2.77778 1.11133H12.5556C13.1779 1.11133 13.489 1.11133 13.7267 1.23243C13.9358 1.33896 14.1057 1.50894 14.2122 1.71801C14.3333 1.95568 14.3333 2.26683 14.3333 2.88911V4.93216C14.3333 5.16329 14.3333 5.27886 14.3107 5.38939C14.2906 5.48746 14.2572 5.58236 14.2117 5.67152C14.1603 5.77201 14.0881 5.86225 13.9438 6.04273L10.2784 10.6243C10.1341 10.8049 10.0619 10.8951 10.0106 10.9955C9.965 11.0848 9.93167 11.1797 9.91156 11.2777C9.88889 11.3882 9.88889 11.5038 9.88889 11.7349V15.5558L5.44444 18.8891Z" stroke="white" stroke-width="2" stroke-linecap="round" stroke-linejoin="round"/>
</svg>
