<svg width="30" height="30" viewBox="0 0 30 30" fill="none" xmlns="http://www.w3.org/2000/svg">
<path d="M28.8905 29.8224H0.931952C0.417514 29.8224 0 29.4049 0 28.8904C0 28.376 0.417514 27.9585 0.931952 27.9585H28.8905C29.4049 27.9585 29.8225 28.376 29.8225 28.8904C29.8225 29.4049 29.4049 29.8224 28.8905 29.8224Z" fill="white"/>
<path d="M9.03064 22.8645C9.03064 24.6483 7.58426 26.0946 5.8005 26.0946H3.40678C1.62303 26.0946 0.176636 24.6483 0.176636 22.8645V13.4816C0.177102 11.6979 1.62349 10.2515 3.40725 10.2515H5.80097C7.58472 10.2515 9.03111 11.6979 9.03111 13.4816L9.03064 22.8645ZM7.16674 13.4816C7.16674 12.7272 6.55491 12.1154 5.8005 12.1154H3.40678C2.65237 12.1154 2.04054 12.7272 2.04054 13.4816V22.865C2.04101 23.6194 2.65283 24.2307 3.40725 24.2307H5.80097C6.55538 24.2307 7.16721 23.6189 7.16721 22.8645L7.16674 13.4816Z" fill="white"/>
<path d="M19.7481 22.8645C19.7481 24.6483 18.3017 26.0947 16.5179 26.0947H14.1242C12.3404 26.0947 10.894 24.6483 10.894 22.8645V8.35588C10.894 6.57212 12.3404 5.12573 14.1242 5.12573H16.5179C18.3017 5.12573 19.7481 6.57212 19.7481 8.35588V22.8645ZM17.8841 8.35588C17.8841 7.60146 17.2723 6.98964 16.5179 6.98964H14.1242C13.3698 6.98964 12.7579 7.60146 12.7579 8.35588V22.865C12.7579 23.6194 13.3698 24.2312 14.1242 24.2312H16.5179C17.2723 24.2312 17.8841 23.6194 17.8841 22.865V8.35588Z" fill="white"/>
<path d="M24.3192 6.98968C24.0615 6.98968 23.9418 6.78139 23.9418 6.52371V3.71014C23.9418 2.7959 24.6925 2.7959 24.9977 2.7959H26.0946C26.3518 2.7959 26.5606 3.00419 26.5606 3.26187C26.5606 3.51956 26.3518 3.72785 26.0946 3.72785H24.9977C24.8411 3.72785 24.7502 3.73531 24.6976 3.74416L24.7409 6.52371C24.7409 6.78139 24.5764 6.98968 24.3192 6.98968Z" fill="white"/>
<path d="M24.2306 8.00552C24.109 8.00552 23.9878 7.95426 23.8998 7.87038C23.8154 7.78231 23.7646 7.6607 23.7646 7.53954C23.7646 7.41839 23.8154 7.29723 23.8998 7.2087C24.0769 7.03163 24.3891 7.03629 24.5615 7.2087C24.6453 7.29723 24.6966 7.41373 24.6966 7.53954C24.6966 7.6607 24.6453 7.78231 24.5615 7.87038C24.4725 7.95379 24.3513 8.00552 24.2306 8.00552Z" fill="white"/>
<path d="M29.9995 22.8645C29.9995 24.6483 28.5531 26.0947 26.7694 26.0947H24.3757C22.5919 26.0947 21.1455 24.6483 21.1455 22.8645V3.23015C21.146 1.44639 22.5924 0 24.3761 0H26.7698C28.5536 0 30 1.44639 30 3.23015L29.9995 22.8645ZM28.1356 3.23015C28.1356 2.47573 27.5243 1.8639 26.7698 1.8639H24.3761C23.6217 1.8639 23.0099 2.47573 23.0099 3.23015V22.865C23.0099 23.6194 23.6217 24.2312 24.3761 24.2312H26.7698C27.5243 24.2312 28.1361 23.6194 28.1361 22.865L28.1356 3.23015Z" fill="white"/>
</svg>
