<svg width="30" height="30" viewBox="0 0 30 30" fill="none" xmlns="http://www.w3.org/2000/svg">
<path d="M14.5454 0.000151656C11.6686 0.000151656 8.85638 0.853223 6.46441 2.45149C4.07243 4.04976 2.20811 6.32143 1.10721 8.97925C0.00630233 11.6371 -0.281745 14.5617 0.279492 17.3832C0.840728 20.2047 2.22604 22.7965 4.26025 24.8307C6.29446 26.8649 8.88619 28.2502 11.7077 28.8114C14.5292 29.3727 17.4538 29.0846 20.1117 27.9837C22.7695 26.8828 25.0412 25.0185 26.6394 22.6265C28.2377 20.2345 29.0908 17.4223 29.0908 14.5455C29.0995 12.633 28.7293 10.7376 28.0014 8.96891C27.2735 7.20024 26.2024 5.59329 24.85 4.24088C23.4976 2.88847 21.8907 1.8174 20.122 1.08952C18.3533 0.36165 16.458 -0.00860169 14.5454 0.000151656ZM14.5454 26.4463C12.1916 26.4463 9.89074 25.7483 7.93367 24.4407C5.9766 23.133 4.45125 21.2743 3.55051 19.0998C2.64977 16.9252 2.4141 14.5323 2.87329 12.2238C3.33248 9.91528 4.46592 7.79477 6.13027 6.13042C7.79462 4.46607 9.91514 3.33263 12.2237 2.87344C14.5322 2.41424 16.925 2.64992 19.0996 3.55066C21.2742 4.4514 23.1328 5.97675 24.4405 7.93382C25.7482 9.89089 26.4461 12.1918 26.4461 14.5455C26.4288 17.6965 25.1694 20.7134 22.9413 22.9415C20.7132 25.1695 17.6963 26.4289 14.5454 26.4463Z" fill="white"/>
<path d="M14.5455 11.9009C14.1948 11.9009 13.8584 12.0402 13.6104 12.2882C13.3625 12.5362 13.2231 12.8725 13.2231 13.2232V21.157C13.2231 21.5077 13.3625 21.8441 13.6104 22.092C13.8584 22.34 14.1948 22.4793 14.5455 22.4793C14.8961 22.4793 15.2325 22.34 15.4805 22.092C15.7284 21.8441 15.8678 21.5077 15.8678 21.157V13.2232C15.8678 12.8725 15.7284 12.5362 15.4805 12.2882C15.2325 12.0402 14.8961 11.9009 14.5455 11.9009Z" fill="white"/>
<path d="M14.5455 9.25619C15.2757 9.25619 15.8678 8.66417 15.8678 7.93388C15.8678 7.20359 15.2757 6.61157 14.5455 6.61157C13.8152 6.61157 13.2231 7.20359 13.2231 7.93388C13.2231 8.66417 13.8152 9.25619 14.5455 9.25619Z" fill="white"/>
</svg>
