<svg width="30" height="30" viewBox="0 0 30 30" fill="none" xmlns="http://www.w3.org/2000/svg">
<path fill-rule="evenodd" clip-rule="evenodd" d="M0.7788 8.73411C8.9407e-08 10.1569 0 11.8732 0 15.3059V17.5875C0 23.4387 1.78814e-07 26.3644 1.75736 28.1821C3.51472 30 6.34314 30 12 30H18C23.6568 30 26.4853 30 28.2426 28.1821C30 26.3644 30 23.4387 30 17.5875V15.3059C30 11.8732 30 10.1569 29.2212 8.73411C28.4424 7.31132 27.0196 6.42827 24.174 4.66218L21.174 2.8003C18.1659 0.933435 16.6618 0 15 0C13.3382 0 11.8341 0.933435 8.82605 2.8003L5.82605 4.6622C2.98042 6.42827 1.5576 7.31132 0.7788 8.73411ZM10.5 22.875C9.87868 22.875 9.375 23.3787 9.375 24C9.375 24.6213 9.87868 25.125 10.5 25.125H19.5C20.1213 25.125 20.625 24.6213 20.625 24C20.625 23.3787 20.1213 22.875 19.5 22.875H10.5Z" fill="currentColor"/>
</svg>
