<svg width="40" height="31" viewBox="0 0 40 31" fill="none" xmlns="http://www.w3.org/2000/svg">
<path fill-rule="evenodd" clip-rule="evenodd" d="M20.8155 0.180191C20.56 0.0614952 20.2817 0 20 0C19.7183 0 19.44 0.0614952 19.1845 0.180191L1.11906 8.56771C0.784747 8.72325 0.50182 8.97106 0.303571 9.28195C0.105321 9.59285 0 9.95391 0 10.3226C0 10.6914 0.105321 11.0524 0.303571 11.3633C0.50182 11.6742 0.784747 11.922 1.11906 12.0776L4.81989 13.7964C4.62041 14.1075 4.51469 14.4694 4.51536 14.839V23.2265C4.51563 23.6565 4.6591 24.0742 4.92312 24.4137L4.9257 24.4188L4.92828 24.4214L4.93602 24.4317L4.95667 24.4575C5.0409 24.5644 5.12958 24.6678 5.22249 24.7672C5.39798 24.9634 5.64832 25.2266 5.97608 25.5389C6.63159 26.1583 7.60196 26.9712 8.89751 27.7738C11.4989 29.3894 15.3985 30.9688 20.6452 30.9688C25.9022 30.9688 29.5231 29.3816 31.8587 27.7016C32.7932 27.0341 33.6403 26.2521 34.3801 25.3737C34.6839 25.0083 34.9616 24.622 35.2111 24.2175L35.2291 24.1865L35.2369 24.1762V24.1711C35.2369 24.1685 35.2395 24.1659 33.5491 23.2265L35.2395 24.1685C35.3997 23.8803 35.484 23.5562 35.4846 23.2265V14.839C35.4852 14.4694 35.3795 14.1075 35.1801 13.7964L38.8809 12.0776C39.2153 11.922 39.4982 11.6742 39.6964 11.3633C39.8947 11.0524 40 10.6914 40 10.3226C40 9.95391 39.8947 9.59285 39.6964 9.28195C39.4982 8.97106 39.2153 8.72325 38.8809 8.56771L20.8155 0.180191ZM31.6135 15.4532L20.8155 20.4651C20.56 20.5838 20.2817 20.6453 20 20.6453C19.7183 20.6453 19.44 20.5838 19.1845 20.4651L8.38652 15.4532V22.4807C9.16004 23.2423 10.0171 23.9141 10.9415 24.4833C13.0164 25.7737 16.214 27.0977 20.6452 27.0977C25.0661 27.0977 27.8972 25.7815 29.5953 24.5582C30.3559 24.0163 31.0354 23.3689 31.6135 22.6355V15.4532ZM20 16.5758L6.53094 10.3226L20 4.06942L33.4691 10.3226L20 16.5758Z" fill="white"/>
</svg>
