<svg width="30" height="30" viewBox="0 0 30 30" fill="none" xmlns="http://www.w3.org/2000/svg">
<path d="M15 5.09536e-06C12.0333 5.09536e-06 9.13319 0.879739 6.66645 2.52796C4.19971 4.17618 2.27713 6.51886 1.14181 9.25975C0.00649923 12.0006 -0.290551 15.0166 0.288227 17.9264C0.867005 20.8361 2.29562 23.5088 4.3934 25.6066C6.49119 27.7044 9.16393 29.133 12.0736 29.7118C14.9834 30.2906 17.9994 29.9935 20.7402 28.8582C23.4811 27.7229 25.8238 25.8003 27.472 23.3335C29.1203 20.8668 30 17.9667 30 15C30.0016 13.0297 29.6147 11.0784 28.8615 9.25783C28.1083 7.43721 27.0034 5.78298 25.6102 4.38978C24.217 2.99658 22.5628 1.89175 20.7422 1.1385C18.9216 0.385258 16.9703 -0.0016195 15 5.09536e-06ZM15 26.4706C12.7313 26.4706 10.5136 25.7978 8.62729 24.5374C6.74096 23.277 5.27074 21.4856 4.40256 19.3896C3.53438 17.2936 3.30723 14.9873 3.74982 12.7622C4.19242 10.5371 5.28488 8.49326 6.88907 6.88907C8.49326 5.28488 10.5371 4.19241 12.7622 3.74982C14.9873 3.30722 17.2936 3.53438 19.3896 4.40256C21.4856 5.27074 23.277 6.74096 24.5374 8.62729C25.7978 10.5136 26.4706 12.7313 26.4706 15C26.4736 16.5072 26.179 18.0001 25.6036 19.3932C25.0282 20.7862 24.1834 22.0519 23.1177 23.1177C22.0519 24.1834 20.7862 25.0282 19.3932 25.6036C18.0001 26.179 16.5072 26.4736 15 26.4706ZM19.4118 10.3235L14.2941 16.5L10.7647 13.9412C9.97059 13.3235 8.91177 13.5 8.29412 14.2941C7.67647 15.0882 7.85294 16.1471 8.64706 16.7647C9.70588 17.5588 10.8529 18.3529 11.9118 19.1471C12.7059 19.6765 13.4118 20.4706 14.3824 20.5588C14.6471 20.5588 15 20.5588 15.2647 20.3824L15.7941 19.8529L19.7647 15.0882C20.4706 14.2059 21.1765 13.4118 21.8824 12.5294C22.4118 11.8235 22.5882 10.9412 21.9706 10.2353L21.7059 9.97059C21.0882 9.52941 20.0294 9.61765 19.4118 10.3235Z" fill="white"/>
</svg>
