<svg width="32" height="28" viewBox="0 0 32 28" fill="none" xmlns="http://www.w3.org/2000/svg">
<path d="M24.4941 22.125H24.5104M22.217 17.25H26.1206C27.6364 17.25 28.3942 17.25 28.9921 17.4973C29.7891 17.8272 30.4224 18.46 30.7526 19.2562C31.0001 19.8536 31.0001 20.6107 31.0001 22.125C31.0001 23.6393 31.0001 24.3964 30.7526 24.9938C30.4224 25.79 29.7891 26.4228 28.9921 26.7527C28.3942 27 27.6364 27 26.1206 27H6.60265C5.08694 27 4.32909 27 3.73127 26.7527C2.9342 26.4228 2.30093 25.79 1.97076 24.9938C1.72314 24.3964 1.72314 23.6393 1.72314 22.125C1.72314 20.6107 1.72314 19.8536 1.97076 19.2562C2.30093 18.46 2.9342 17.8272 3.73127 17.4973C4.32909 17.25 5.08694 17.25 6.60265 17.25H10.5062M16.3616 18.875V1M16.3616 1L21.2411 5.875M16.3616 1L11.4821 5.875" stroke="white" stroke-width="2" stroke-linecap="round" stroke-linejoin="round"/>
</svg>
